<svg width="260" height="115" viewBox="0 0 260 115" fill="none" xmlns="http://www.w3.org/2000/svg">
<path d="M62.9004 25C69.7701 25.0001 75.2899 26.48 80.9697 30.2197V42.1904C74.5498 36.5105 69.4602 34.2598 62.6104 34.2598C49.6004 34.2598 40.4805 43.9604 40.4805 57.6904C40.4807 71.4202 49.4505 80.5703 62.6104 80.5703C69.7701 80.5702 74.5501 78.6201 81.1299 72.8203V84.5996C74.86 88.4895 69.7802 89.9902 62.9004 89.9902L62.0352 89.96C43.9342 89.5311 30 75.663 30 57.5996C30.0002 39.2498 44.5205 25 62.9004 25ZM134.22 25C141.07 25 146.61 26.4799 152.3 30.2197V42.1904C145.85 36.5104 140.78 34.2598 133.93 34.2598C120.89 34.2599 111.8 43.9605 111.8 57.6904C111.8 71.4201 120.75 80.5702 133.93 80.5703C141.07 80.5703 145.85 78.6201 152.43 72.8203V84.5996C146.16 88.4896 141.07 89.9902 134.22 89.9902L133.354 89.96C115.216 89.5309 101.32 75.6533 101.32 57.5898C101.32 39.24 115.82 25.0001 134.22 25ZM194.01 47.2002C205.8 47.2002 215.4 56.7999 215.4 68.5898C215.4 80.3798 205.8 89.9795 194.01 89.9795C182.22 89.9794 172.62 80.3898 172.62 68.5898C172.62 56.79 182.22 47.2003 194.01 47.2002ZM229.97 88.4102H219.97V36.2305H181.14L186.57 26.7305H229.97V88.4102ZM194.01 55.8896C187.07 55.8898 181.42 61.6302 181.42 68.5801C181.42 75.5299 187.06 81.2801 194.01 81.2803C200.95 81.2803 206.6 75.52 206.6 68.5801C206.6 61.6401 200.95 55.8896 194.01 55.8896Z" fill="currentColor"/>
</svg>
