<svg width="166" height="88" viewBox="0 0 166 88" fill="none" xmlns="http://www.w3.org/2000/svg">
<path fill-rule="evenodd" clip-rule="evenodd" d="M9.11 7.946L11.541 15.258L12.179 14.62L12.816 13.983L15.455 7.308L18.093 0.632996L20.713 0.317001L23.333 0V11.067V22.133H21.379H19.424L19.129 15.383L18.833 8.633L16.501 15.383L14.17 22.133H12.323H10.477L8.542 16.883L6.608 11.633L6.049 10.133L5.491 8.633L5.412 15.383L5.333 22.133H2.833H0.333V11.07V0.0059967L3.506 0.319992L6.679 0.632996L9.11 7.946ZM69.153 3.89299L69.472 6.133H70.903H72.333V7.633V9.133H70.833H69.333V13.664V18.196L70.833 18.771L72.333 19.347V20.74V22.133H69.904H67.476L65.904 20.562L64.333 18.99V14.062V9.133H63.333H62.333V7.633V6.133H63.333H64.333V4.3V2.46599L65.034 1.765L65.735 1.064L67.284 1.35899L68.833 1.653L69.153 3.89299ZM39.698 7.20599L42.333 9.278V13.706V18.133L40.333 20.133L38.333 22.133H35.056H31.778L29.635 20.632L27.491 19.131L26.818 16.066L26.145 13.001L27.31 10.188L28.475 7.375L30.654 6.32199L32.833 5.26799L34.948 5.20099L37.063 5.133L39.698 7.20599ZM58.11 6.69L60.333 8.246V15.19V22.133H58.333H56.333L56.318 16.883L56.302 11.633L55.455 10.296L54.607 8.95799L52.22 9.29599L49.833 9.633L49.534 15.946L49.234 22.259L47.034 21.946L44.833 21.633L44.541 13.883L44.249 6.133H46.791H49.333V7.19V8.246L51.556 6.69L53.778 5.133H54.833H55.888L58.11 6.69ZM86.219 6.883L88.327 8.633L88.955 11.883L89.583 15.133H83.375H77.166L77.559 16.312L77.952 17.49L79.639 18.554L81.326 19.618L83.316 18.376L85.306 17.133H86.819H88.333V18.076V19.02L86.11 20.576L83.888 22.133H81.065H78.242L75.788 19.678L73.333 17.224V14.113V11.002L74.398 9.011L75.464 7.01999L77.648 6.14L79.833 5.25999L81.972 5.196L84.111 5.133L86.219 6.883ZM101.333 7.01599V8.89999L99.345 9.42L97.357 9.939L96.345 12.601L95.333 15.263V18.698V22.133H93.333H91.333V14.133V6.133H93.25H95.166L95.58 7.37399L95.994 8.61499L97.735 6.87399L99.476 5.133H100.404H101.333V7.01599ZM114.649 6.28299L116.833 7.43199L117.568 8.53299L118.302 9.633L118.318 12.383L118.333 15.133H112.833H107.333V16.566V17.998L109.381 18.648L111.429 19.298L112.826 18.139L114.223 16.979L116.528 17.306L118.833 17.633L116.583 19.883L114.333 22.133H110.788H107.242L104.788 19.678L102.333 17.224V13.87V10.515L103.583 8.948L104.833 7.38199L106.833 6.28799L108.833 5.194L110.649 5.16299L112.464 5.133L114.649 6.28299ZM124.836 11.141L126.499 16.149L127.279 15.667L128.059 15.185L129.326 10.659L130.593 6.133H132.948H135.304L133.421 10.883L131.538 15.633L129.78 20.133L128.023 24.633L126.523 26.383L125.023 28.133H122.678H120.333V26.75V25.366L122.333 24.843L124.333 24.32V22.207V20.093L121.833 13.941L119.333 7.78799V6.961V6.133H121.253H123.172L124.836 11.141ZM79.083 9.213L77.333 10.232V11.183V12.133H81.333H85.333V11.168V10.203L83.399 9.168L81.464 8.133L81.149 8.16299L80.833 8.194L79.083 9.213ZM108.533 9.33299L107.333 10.533V11.333V12.133H110.833H114.333V11.168V10.203L112.399 9.168L110.464 8.133H110.099H109.733L108.533 9.33299ZM31.576 10.29L30.333 11.533V13.762V15.99L31.904 17.562L33.476 19.133H34.213H34.951L36.721 17.839L38.49 16.545L38.162 13.089L37.833 9.633L35.326 9.34L32.819 9.047L31.576 10.29ZM13.72 33.09L16.237 34.047L17.896 37.256L19.556 40.464L19.043 45.016L18.53 49.567L15.876 51.85L13.221 54.133H6.777H0.333V43.133V32.133H5.768H11.203L13.72 33.09ZM59.333 33.633V35.133H56.833H54.333V33.633V32.133H56.833H59.333V33.633ZM5.333 43.133V50.133H8.798H12.263L13.298 48.199L14.333 46.264V42.755V39.246L12.11 37.69L9.888 36.133H7.61H5.333V43.133ZM35.26 40.768L37.333 43.403V45.268V47.133H31.226H25.119L25.726 48.715L26.333 50.297V50.715V51.133H28.774H31.215L31.833 50.133L32.451 49.133H34.392H36.333V49.804V50.476L34.678 52.304L33.023 54.133H28.833H24.643L22.852 52.154L21.06 50.174V45.973V41.772L23.307 39.953L25.555 38.133H29.371H33.188L35.26 40.768ZM50.792 40.378L52.364 42.623L51.25 42.994L50.136 43.365L47.802 42.116L45.468 40.867L43.837 41.493L42.206 42.119L42.749 42.997L43.291 43.875L46.467 44.51L49.642 45.145L50.988 46.261L52.333 47.378V49.555V51.733L51.133 52.933L49.933 54.133H45.333H40.733L39.533 52.933L38.333 51.733V50.433V49.133H40.333H42.333V50.133V51.133H44.833H47.333V49.758V48.383L44.191 47.755L41.048 47.126L39.723 45.38L38.397 43.633L38.365 42.454L38.333 41.276L39.904 39.704L41.476 38.133H45.348H49.22L50.792 40.378ZM59.333 46.133V54.133H56.833H54.333V46.133V38.133H56.833H59.333V46.133ZM77.333 47.781V57.133L75.333 59.133L73.333 61.133H69.333H65.333L63.333 59.133L61.333 57.133V56.133V55.133H63.274H65.215L65.833 56.133L66.451 57.133H69.285H72.119L72.726 55.551L73.333 53.969V53.016V52.063L71.399 53.098L69.464 54.133H67.853H66.242L63.788 51.678L61.333 49.224V45.901V42.578L62.864 40.393L64.394 38.208L70.864 38.318L77.333 38.428V47.781ZM85.333 39.333V40.533L86.533 39.333L87.733 38.133H90.462H93.19L94.762 39.704L96.333 41.276V47.704V54.133H93.881H91.428L91.131 47.883L90.833 41.633H88.333H85.833L85.535 47.883L85.238 54.133H82.785H80.333V46.133V38.133H82.833H85.333V39.333ZM26.373 42.585L25.088 44.133H28.794H32.5L32.088 42.883L31.676 41.633L29.667 41.335L27.658 41.036L26.373 42.585ZM66.571 42.295L65.333 43.533V45.633V47.733L66.533 48.933L67.733 50.133H70.014H72.295L72.961 47.478L73.628 44.823L72.628 43.228L71.629 41.633L69.719 41.345L67.81 41.056L66.571 42.295ZM17.573 67.181L19.333 69.355V70.744V72.133H17.488H15.643L13.79 70.086L11.937 68.038L9.421 68.336L6.904 68.633L5.541 72.23L4.178 75.827L5.705 79.48L7.231 83.133H9.627H12.023L13.833 81.133L15.643 79.133H17.488H19.333V80.522V81.911L17.583 84.053L15.833 86.194L12.333 86.744L8.833 87.295L6.135 86.258L3.438 85.222L1.719 82.599L0 79.975V75.633V71.291L1.725 68.658L3.45 66.025L5.641 65.091L7.833 64.157L11.823 64.582L15.813 65.007L17.573 67.181ZM66.333 65.526V66.919L64.833 67.495L63.333 68.07V69.102V70.133H64.833H66.333V72.133V74.133H64.833H63.333V80.633V87.133H60.833H58.333V80.633V74.133H57.333H56.333V72.133V70.133H57.333H58.333V68.962V67.79L59.988 65.962L61.643 64.133H63.988H66.333V65.526ZM34.698 72.206L37.333 74.278V78.551V82.823L35.517 84.466L33.702 86.109L30.64 86.722L27.577 87.334L25.205 86.084L22.833 84.834L22.098 83.733L21.364 82.633V78.633V74.633L22.098 73.548L22.833 72.462L24.833 71.328L26.833 70.194L29.448 70.163L32.063 70.133L34.698 72.206ZM43.333 71.656V73.179L45.775 71.579L48.217 69.979L50.5 70.306L52.783 70.633L54.067 73.133L55.351 75.633L55.092 81.133L54.833 86.633H52.833H50.833L50.535 80.383L50.238 74.133H47.392H44.547L43.94 75.715L43.333 77.297V82.215V87.133H41.333H39.333V78.633V70.133H41.333H43.333V71.656ZM80.878 72.588L83.333 75.042V77.088V79.133H77.333H71.333V80.062V80.99L72.904 82.562L74.476 84.133H75.855H77.234L78.124 82.543L79.014 80.952L81.423 81.293L83.833 81.633L81.128 84.383L78.424 87.133H75.813H73.202L71.017 85.983L68.833 84.834L68.098 83.733L67.364 82.633V78.633V74.633L68.098 73.548L68.833 72.462L70.833 71.328L72.833 70.194L75.628 70.163L78.424 70.133L80.878 72.588ZM89.333 71.656V73.179L91.789 71.57L94.245 69.961L95.289 70.606L96.333 71.251V72.692V74.133H93.868H91.403L90.368 76.067L89.333 78.002V82.567V87.133H87.333H85.333V78.633V70.133H87.333H89.333V71.656ZM109.878 72.588L112.333 75.042V77.088V79.133H106.333H100.333V80.062V80.99L101.904 82.562L103.476 84.133H104.576H105.676L107.43 82.545L109.184 80.958L111.009 81.32L112.833 81.682L110.128 84.408L107.424 87.133H104.489H101.555L99.381 85.373L97.207 83.613L96.649 79.449L96.09 75.285L98.666 72.709L101.242 70.133H104.333H107.424L109.878 72.588ZM118.835 71.136L119.454 72.138L121.328 71.136L123.202 70.133H124.767H126.333L128.333 72.133L130.333 74.133V80.633V87.133H127.881H125.428L125.131 80.883L124.833 74.633H122.333H119.833L119.333 80.633L118.833 86.633L116.583 86.953L114.333 87.272V78.703V70.133H116.274H118.215L118.835 71.136ZM145.333 72.133L147.333 74.133V75.133V76.133H145.333H143.333V75.07V74.006L140.091 74.32L136.849 74.633L136.503 76.462L136.156 78.291L136.763 80.712L137.371 83.133H139.883H142.396L142.971 81.633L143.547 80.133H145.44H147.333V81.633V83.133L145.333 85.133L143.333 87.133H140.468H137.603L134.968 85.06L132.333 82.988V78.633V74.278L134.968 72.206L137.603 70.133H140.468H143.333L145.333 72.133ZM162.18 71.883L164.248 73.633L164.899 76.383L165.55 79.133H159.441H153.333V80.511V81.888L154.785 83.093L156.237 84.298L158.285 83.648L160.333 82.998V82.066V81.133H162.333H164.333V82.576V84.02L162.11 85.576L159.888 87.133H157.166H154.445L151.796 84.855L149.148 82.577L149.038 78.727L148.929 74.877L151.687 72.505L154.445 70.133H157.278H160.111L162.18 71.883ZM72.533 74.333L71.333 75.533V76.333V77.133H74.833H78.333V75.74V74.347L76.751 73.74L75.169 73.133H74.451H73.733L72.533 74.333ZM101.533 74.333L100.333 75.533V76.333V77.133H104.333H108.333V76.333V75.533L107.133 74.333L105.933 73.133H104.333H102.733L101.533 74.333ZM154.533 74.333L153.333 75.533V76.333V77.133H156.833H160.333V75.74V74.347L158.751 73.74L157.169 73.133H156.451H155.733L154.533 74.333ZM25.778 76.498L25.152 78.989L25.81 81.061L26.468 83.133H28.922H31.376L32.55 80.555L33.725 77.978L32.678 76.305L31.631 74.633L29.017 74.32L26.403 74.007L25.778 76.498Z" fill="currentColor"/>
</svg>
