<svg width="143" height="36" viewBox="0 0 143 36" fill="none" xmlns="http://www.w3.org/2000/svg">
<path fill-rule="evenodd" clip-rule="evenodd" d="M8.016 0.993L4.532 1.843L2.266 4.477L0 7.112V10.101V13.091L2.397 15.487L4.793 17.884L10.24 19.468L15.688 21.051L17.466 22.352L19.245 23.652L18.556 25.824L17.867 27.995L15.433 28.606L13 29.217L10.518 28.594L8.036 27.971L6.493 24.986L4.949 22H2.474H0V25.077V28.154L2.85 31.003L5.699 33.853L9.35 34.538L13 35.223L16.65 34.538L20.301 33.853L23.15 31.003L26 28.154V24.166V20.178L22.977 17.634L19.954 15.091L13.885 13.388L7.816 11.685L7.296 10.33L6.776 8.975L8.011 7.487L9.245 6H12.083H14.922L16.961 8.189L19 10.377V11.189V12H20.878H22.755L24.025 10.47L25.294 8.941L24.193 6.523L23.091 4.106L20.796 2.627L18.5 1.148L15 0.646L11.5 0.143999L8.016 0.993ZM64.505 1.994L62.701 3.988L57.351 17.561L52.001 31.134L53.036 33.067L54.07 35H54.953H55.836L57.37 34.412L58.903 33.823L60.029 30.412L61.155 27H67.564H73.973L75.441 30.514L76.91 34.028L78.468 34.626L80.025 35.224L81.513 33.989L83 32.755V30.983V29.21L77.489 15.855L71.978 2.5L70.298 1.25L68.618 0H67.464H66.31L64.505 1.994ZM30.988 3.531L30 6.13L30.014 17.815L30.027 29.5L30.622 31.717L31.216 33.934L33.156 34.549L35.096 35.165L36.548 33.96L38 32.755V26.378V20H44.393H50.786L51.41 18.373L52.035 16.747L50.895 15.373L49.755 14H43.878H38V10.5V7L44.75 6.985L51.5 6.969L52.848 6.115L54.197 5.26L53.837 3.38L53.476 1.5L42.726 1.216L31.976 0.931999L30.988 3.531ZM88.441 2.294L87.944 3.588L88.222 18.544L88.5 33.5L98.633 33.784L108.766 34.067L111.883 31.445L115 28.822V24.863V20.905L112.604 18.684L110.207 16.463L112.104 14.12L114 11.778V9.312V6.846L111.077 3.923L108.154 1H98.546H88.937L88.441 2.294ZM121.232 2.168L120 3.4V18.078V32.755L121.452 33.96L122.904 35.165L124.952 34.515L127 33.865V26.978V20.091L133.74 19.796L140.479 19.5L140.838 17.62L141.197 15.74L139.848 14.885L138.5 14.031L132.75 14.015L127 14V10.542V7.084L134.75 6.792L142.5 6.5V4V1.5L132.482 1.218L122.465 0.934999L121.232 2.168ZM105.88 8.776L106.83 10.552L105.866 12.276L104.901 14H99.95H95V10.5V7H99.965H104.93L105.88 8.776ZM68.297 20.816L64.799 21.133L64.321 20.654L63.842 20.176L65.632 14.499L67.422 8.822L69.608 14.661L71.794 20.5L68.297 20.816ZM106.066 21.035L108 22.07V23.835V25.6L106.8 26.8L105.6 28H100.3H95V24V20H99.566H104.131L106.066 21.035Z" fill="currentColor"/>
</svg>
